<?xml version="1.0" standalone="no"?>
<!DOCTYPE svg PUBLIC "-//W3C//DTD SVG 20010904//EN"
 "http://www.w3.org/TR/2001/REC-SVG-20010904/DTD/svg10.dtd">
<svg version="1.0" xmlns="http://www.w3.org/2000/svg"
 width="700.000000pt" height="700.000000pt" viewBox="0 0 700.000000 700.000000"
 preserveAspectRatio="xMidYMid meet">
<metadata>
Created by potrace 1.11, written by Peter Selinger 2001-2013
</metadata>
<g transform="translate(0.000000,700.000000) scale(0.100000,-0.100000)"
fill="#000000" stroke="none">
<path d="M3455 6901 c-38 -20 -146 -77 -240 -125 -93 -48 -176 -92 -182 -98
-7 -6 -13 -7 -13 -3 0 4 -6 3 -12 -3 -15 -12 -93 -53 -373 -197 -228 -117
-403 -208 -560 -290 -93 -49 -281 -146 -585 -303 -170 -87 -315 -162 -500
-259 -85 -44 -231 -120 -325 -168 -93 -49 -172 -92 -175 -96 -4 -6 -5 -1558
-1 -1581 0 -4 43 -28 94 -54 50 -25 119 -61 152 -79 33 -18 128 -67 210 -110
83 -43 182 -95 220 -115 39 -20 147 -77 240 -125 94 -48 193 -100 220 -115 28
-15 127 -67 220 -115 94 -48 202 -105 240 -125 39 -21 129 -68 200 -105 72
-37 175 -91 230 -120 55 -29 163 -85 240 -125 77 -40 176 -92 220 -115 44 -23
150 -79 235 -123 85 -44 192 -100 237 -124 l82 -43 63 32 c60 31 249 129 493
258 61 31 171 89 245 127 74 39 176 92 225 118 50 26 153 80 230 120 77 40
183 95 235 123 196 102 319 166 455 237 77 40 181 94 230 120 124 65 271 142
460 240 88 46 214 112 279 147 66 35 123 63 126 63 8 0 7 1586 0 1593 -6 5
-208 110 -455 237 -99 51 -225 116 -280 145 -107 56 -292 152 -550 285 -88 45
-205 106 -260 135 -94 49 -157 82 -550 285 -88 45 -218 113 -290 150 -175 91
-395 205 -538 279 -65 34 -119 61 -120 60 -1 0 -33 -17 -72 -38z m115 -1559
c74 -39 311 -163 435 -227 72 -37 171 -89 220 -115 50 -26 158 -83 240 -126
83 -43 209 -109 280 -146 72 -37 171 -89 222 -115 51 -26 91 -48 90 -49 -1 0
-83 -43 -182 -94 -99 -51 -238 -123 -310 -160 -71 -37 -202 -105 -290 -150
-88 -45 -200 -104 -250 -130 -49 -26 -175 -91 -280 -145 -104 -54 -194 -101
-199 -106 -8 -7 -97 36 -481 236 -215 112 -380 197 -575 298 -102 53 -249 129
-328 170 -79 41 -144 78 -144 82 0 4 47 32 104 62 178 94 368 193 498 261 126
65 273 142 430 224 47 25 166 87 265 138 99 51 184 97 190 101 13 13 26 11 65
-9z"/>
<path d="M488 3148 c-5 -18 -3 -1557 3 -1561 2 -2 84 -45 182 -96 99 -51 216
-112 260 -135 45 -24 145 -76 222 -116 197 -102 358 -187 440 -230 39 -21 138
-72 220 -115 83 -43 173 -90 200 -105 28 -15 118 -62 200 -105 83 -43 195
-101 250 -130 107 -56 258 -135 450 -235 66 -34 165 -86 220 -115 55 -29 167
-87 249 -130 l149 -77 86 44 c47 25 142 74 211 110 69 36 193 100 275 143 214
111 385 199 500 260 55 29 186 96 290 150 105 54 226 117 270 140 44 23 161
84 260 135 99 51 216 112 260 135 82 43 240 125 540 280 260 135 339 176 347
184 5 4 -74 49 -175 100 -100 52 -227 117 -282 146 -55 29 -179 93 -275 143
-96 49 -247 127 -335 172 -88 46 -226 117 -306 158 l-147 75 -93 -48 c-52 -26
-148 -76 -214 -110 -66 -34 -201 -104 -300 -155 -185 -95 -381 -196 -590 -305
-66 -34 -166 -86 -222 -115 l-101 -52 -179 92 c-98 51 -243 126 -323 167 -80
42 -194 101 -255 133 -60 32 -191 99 -290 150 -99 51 -216 112 -260 135 -44
23 -161 84 -260 135 -99 51 -234 121 -300 155 -66 35 -187 97 -270 140 -82 43
-208 108 -280 145 -71 37 -202 105 -290 150 -88 45 -197 102 -241 126 -91 49
-90 49 -96 32z"/>
</g>
</svg>
