<?xml version="1.0" encoding="UTF-8" standalone="no"?>
<!-- Created with Inkscape (http://www.inkscape.org/) -->

<svg
   xmlns:dc="http://purl.org/dc/elements/1.1/"
   xmlns:cc="http://creativecommons.org/ns#"
   xmlns:rdf="http://www.w3.org/1999/02/22-rdf-syntax-ns#"
   xmlns:svg="http://www.w3.org/2000/svg"
   xmlns="http://www.w3.org/2000/svg"
   xmlns:xlink="http://www.w3.org/1999/xlink"
   xmlns:sodipodi="http://sodipodi.sourceforge.net/DTD/sodipodi-0.dtd"
   xmlns:inkscape="http://www.inkscape.org/namespaces/inkscape"
   width="523.37122"
   height="344.25388"
   id="svg2"
   version="1.1"
   inkscape:version="0.91 r13725"
   sodipodi:docname="deploy.svg"
   inkscape:export-filename="deploy.png"
   inkscape:export-xdpi="143.45"
   inkscape:export-ydpi="143.45">
  <defs
     id="defs4">
    <inkscape:path-effect
       effect="skeletal"
       id="path-effect3110"
       is_visible="true"
       pattern="M 0,0 5,-5 -12.5,0 5,5 0,0 z"
       copytype="single_stretched"
       prop_scale="1"
       scale_y_rel="false"
       spacing="0"
       normal_offset="0"
       tang_offset="0"
       prop_units="false"
       vertical_pattern="false"
       fuse_tolerance="0" />
    <marker
       inkscape:stockid="Arrow1Mend"
       orient="auto"
       refY="0"
       refX="0"
       id="Arrow1Mend"
       style="overflow:visible">
      <path
         id="path4120"
         d="M 0,0 5,-5 -12.5,0 5,5 0,0 z"
         style="fill-rule:evenodd;stroke:#000000;stroke-width:1pt"
         transform="matrix(-0.4,0,0,-0.4,-4,0)"
         inkscape:connector-curvature="0" />
    </marker>
    <marker
       inkscape:stockid="Arrow1Lend"
       orient="auto"
       refY="0"
       refX="0"
       id="Arrow1Lend"
       style="overflow:visible">
      <path
         id="path4114"
         d="M 0,0 5,-5 -12.5,0 5,5 0,0 z"
         style="fill-rule:evenodd;stroke:#000000;stroke-width:1pt"
         transform="matrix(-0.8,0,0,-0.8,-10,0)"
         inkscape:connector-curvature="0" />
    </marker>
    <marker
       inkscape:stockid="Arrow1Mend"
       orient="auto"
       refY="0"
       refX="0"
       id="Arrow1Mend-2"
       style="overflow:visible">
      <path
         inkscape:connector-curvature="0"
         id="path4120-9"
         d="M 0,0 5,-5 -12.5,0 5,5 0,0 z"
         style="fill-rule:evenodd;stroke:#000000;stroke-width:1pt"
         transform="matrix(-0.4,0,0,-0.4,-4,0)" />
    </marker>
    <marker
       inkscape:stockid="Arrow1Mend"
       orient="auto"
       refY="0"
       refX="0"
       id="Arrow1Mend-1"
       style="overflow:visible">
      <path
         inkscape:connector-curvature="0"
         id="path4120-7"
         d="M 0,0 5,-5 -12.5,0 5,5 0,0 z"
         style="fill-rule:evenodd;stroke:#000000;stroke-width:1pt"
         transform="matrix(-0.4,0,0,-0.4,-4,0)" />
    </marker>
    <marker
       inkscape:stockid="Arrow1Mend"
       orient="auto"
       refY="0"
       refX="0"
       id="Arrow1Mend-8"
       style="overflow:visible">
      <path
         inkscape:connector-curvature="0"
         id="path4120-76"
         d="M 0,0 5,-5 -12.5,0 5,5 0,0 z"
         style="fill-rule:evenodd;stroke:#000000;stroke-width:1pt"
         transform="matrix(-0.4,0,0,-0.4,-4,0)" />
    </marker>
    <marker
       inkscape:stockid="Arrow1Mend"
       orient="auto"
       refY="0"
       refX="0"
       id="Arrow1Mend-25"
       style="overflow:visible">
      <path
         inkscape:connector-curvature="0"
         id="path4120-5"
         d="M 0,0 5,-5 -12.5,0 5,5 0,0 z"
         style="fill-rule:evenodd;stroke:#000000;stroke-width:1pt"
         transform="matrix(-0.4,0,0,-0.4,-4,0)" />
    </marker>
    <marker
       inkscape:stockid="Arrow1Mend"
       orient="auto"
       refY="0"
       refX="0"
       id="Arrow1Mend-81"
       style="overflow:visible">
      <path
         id="path4120-2"
         d="M 0,0 5,-5 -12.5,0 5,5 0,0 z"
         style="fill-rule:evenodd;stroke:#000000;stroke-width:1pt"
         transform="matrix(-0.4,0,0,-0.4,-4,0)"
         inkscape:connector-curvature="0" />
    </marker>
    <marker
       inkscape:stockid="Arrow1Mend"
       orient="auto"
       refY="0"
       refX="0"
       id="Arrow1Mend-3"
       style="overflow:visible">
      <path
         id="path4120-4"
         d="M 0,0 5,-5 -12.5,0 5,5 0,0 z"
         style="fill-rule:evenodd;stroke:#000000;stroke-width:1pt"
         transform="matrix(-0.4,0,0,-0.4,-4,0)"
         inkscape:connector-curvature="0" />
    </marker>
    <marker
       inkscape:stockid="Arrow1Mend"
       orient="auto"
       refY="0"
       refX="0"
       id="Arrow1Mend-6"
       style="overflow:visible">
      <path
         id="path4120-53"
         d="M 0,0 5,-5 -12.5,0 5,5 0,0 Z"
         style="fill-rule:evenodd;stroke:#000000;stroke-width:1pt"
         transform="matrix(-0.4,0,0,-0.4,-4,0)"
         inkscape:connector-curvature="0" />
    </marker>
    <linearGradient
       id="linearGradient4292"
       inkscape:collect="always">
      <stop
         id="stop4294"
         offset="0"
         style="stop-color:#411f5d;stop-opacity:1" />
      <stop
         id="stop4296"
         offset="1"
         style="stop-color:#5b2a85;stop-opacity:1" />
    </linearGradient>
    <linearGradient
       id="linearGradient4284">
      <stop
         offset="0"
         style="stop-color:#8381c5;stop-opacity:1"
         id="stop4286" />
      <stop
         id="stop4290"
         style="stop-color:#7e55b3;stop-opacity:0.99607843"
         offset="0.56639391" />
      <stop
         offset="1"
         style="stop-color:#a52ecb;stop-opacity:0.99215686"
         id="stop4288" />
    </linearGradient>
    <linearGradient
       id="linearGradient4898">
      <stop
         id="stop4278"
         style="stop-color:#bab8db;stop-opacity:1"
         offset="0" />
      <stop
         id="stop4280"
         style="stop-color:#5955a9;stop-opacity:0.99159664"
         offset="1" />
    </linearGradient>
    <linearGradient
       id="linearGradient3294">
      <stop
         offset="0"
         style="stop-color:#6376e6;stop-opacity:1"
         id="stop3296" />
      <stop
         offset="0.50094414"
         style="stop-color:#222989;stop-opacity:1"
         id="stop3302" />
      <stop
         offset="1"
         style="stop-color:#00003d;stop-opacity:1"
         id="stop3298" />
    </linearGradient>
    <linearGradient
       id="linearGradient3284">
      <stop
         offset="0"
         style="stop-color:#000000;stop-opacity:1"
         id="stop3286" />
      <stop
         offset="0.84845906"
         style="stop-color:#000000;stop-opacity:0.49803922"
         id="stop3292" />
      <stop
         offset="1"
         style="stop-color:#000000;stop-opacity:0"
         id="stop3288" />
    </linearGradient>
    <linearGradient
       id="linearGradient3274">
      <stop
         offset="0"
         style="stop-color:#000000;stop-opacity:1"
         id="stop3276" />
      <stop
         offset="1"
         style="stop-color:#000000;stop-opacity:0"
         id="stop3278" />
    </linearGradient>
    <linearGradient
       id="linearGradient3242">
      <stop
         offset="0"
         style="stop-color:#282828;stop-opacity:1"
         id="stop3244" />
      <stop
         offset="0.39253417"
         style="stop-color:#808080;stop-opacity:1"
         id="stop3252" />
      <stop
         offset="1"
         style="stop-color:#d9d9d9;stop-opacity:1"
         id="stop3246" />
    </linearGradient>
    <linearGradient
       id="linearGradient3202">
      <stop
         offset="0"
         style="stop-color:#2b2b2b;stop-opacity:1"
         id="stop3204" />
      <stop
         offset="0.5"
         style="stop-color:#828383;stop-opacity:1"
         id="stop3250" />
      <stop
         offset="1"
         style="stop-color:#dadbdb;stop-opacity:1"
         id="stop3206" />
    </linearGradient>
    <linearGradient
       id="linearGradient4966">
      <stop
         offset="0"
         style="stop-color:#b6b3d8;stop-opacity:1"
         id="stop4968" />
      <stop
         offset="1"
         style="stop-color:#b6b3d8;stop-opacity:0"
         id="stop4970" />
    </linearGradient>
    <linearGradient
       id="linearGradient4876">
      <stop
         offset="0"
         style="stop-color:#d3d2e8;stop-opacity:1"
         id="stop4878" />
      <stop
         offset="1"
         style="stop-color:#5955a9;stop-opacity:0.99159664"
         id="stop4880" />
    </linearGradient>
    <radialGradient
       gradientTransform="matrix(0.6817439,0,0,0.5905355,-3.8523706,-28.935273)"
       gradientUnits="userSpaceOnUse"
       xlink:href="#linearGradient4898"
       id="radialGradient4892"
       fy="-108.96888"
       fx="20.951529"
       r="266.76535"
       cy="-108.96888"
       cx="20.951529" />
    <radialGradient
       gradientTransform="matrix(1,0,0,0.1854103,0,383.88493)"
       gradientUnits="userSpaceOnUse"
       xlink:href="#linearGradient3274"
       id="radialGradient4944"
       fy="471.26172"
       fx="233.8876"
       r="170.49393"
       cy="471.26172"
       cx="233.8876" />
    <radialGradient
       gradientTransform="matrix(1,0,0,0.9121621,0,32.654948)"
       gradientUnits="userSpaceOnUse"
       xlink:href="#linearGradient4966"
       id="radialGradient4972"
       fy="371.76376"
       fx="299.70135"
       r="76.696358"
       cy="371.76376"
       cx="299.70135" />
    <radialGradient
       gradientTransform="matrix(0.414705,0.3300575,-0.5059004,0.6356454,346.95314,49.479585)"
       gradientUnits="userSpaceOnUse"
       xlink:href="#linearGradient3202"
       id="radialGradient3210"
       fy="390.45248"
       fx="289.44067"
       r="17.67668"
       cy="390.45248"
       cx="289.44067" />
    <radialGradient
       gradientTransform="matrix(0.414705,0.3300575,-0.5059004,0.6356454,448.41009,-65.398074)"
       gradientUnits="userSpaceOnUse"
       xlink:href="#linearGradient3202"
       id="radialGradient3238"
       fy="382.14804"
       fx="283.50717"
       r="17.67668"
       cy="382.14804"
       cx="283.50717" />
    <radialGradient
       gradientTransform="matrix(-6.5565014e-2,-5.9721765e-2,1.6871024,-1.8521705,171.90774,540.51473)"
       gradientUnits="userSpaceOnUse"
       xlink:href="#linearGradient3242"
       id="radialGradient3248"
       fy="181.18982"
       fx="418.45551"
       r="63.068935"
       cy="181.18982"
       cx="418.45551" />
    <radialGradient
       gradientTransform="matrix(0.4055116,-3.3440123e-2,0.1034174,4.3988695,177.23251,-1191.6649)"
       gradientUnits="userSpaceOnUse"
       xlink:href="#linearGradient3274"
       id="radialGradient3268"
       fy="357.33591"
       fx="354.51709"
       r="33.712105"
       cy="357.33591"
       cx="354.51709" />
    <radialGradient
       gradientTransform="matrix(-0.1339874,-0.1146812,0.3079048,-0.3597394,444.23592,395.03849)"
       gradientUnits="userSpaceOnUse"
       xlink:href="#linearGradient3274"
       id="radialGradient3280"
       fy="223.55537"
       fx="510.58469"
       r="132.28336"
       cy="223.55537"
       cx="510.58469" />
    <radialGradient
       gradientTransform="matrix(-1.2497569,1.3798305,-9.6289463e-2,-7.2974479e-2,674.3826,-70.590682)"
       gradientUnits="userSpaceOnUse"
       xlink:href="#linearGradient3284"
       id="radialGradient3290"
       fy="-158.17821"
       fx="284.4671"
       r="110.2972"
       cy="-158.17821"
       cx="284.4671" />
    <radialGradient
       gradientTransform="matrix(-0.1008165,-8.0872321e-2,1.0745309,-1.3395252,13.843287,784.79288)"
       gradientUnits="userSpaceOnUse"
       xlink:href="#linearGradient3294"
       id="radialGradient3300"
       fy="356.62274"
       fx="425.51019"
       r="143.34167"
       cy="356.62274"
       cx="425.51019" />
    <linearGradient
       gradientTransform="matrix(0.87385837,0,0,0.82818057,245.24056,249.18407)"
       spreadMethod="pad"
       gradientUnits="userSpaceOnUse"
       y2="300.73987"
       x2="236.61363"
       y1="-161.8512"
       x1="-122.20192"
       id="linearGradient4274"
       xlink:href="#linearGradient4284"
       inkscape:collect="always" />
    <linearGradient
       gradientTransform="matrix(0.98684959,0,0,0.98684959,2.2673732,1.4277354)"
       gradientUnits="userSpaceOnUse"
       y2="66.018341"
       x2="173.94518"
       y1="396.6066"
       x1="447.80933"
       id="linearGradient4298"
       xlink:href="#linearGradient4292"
       inkscape:collect="always" />
    <filter
       height="1.088351"
       y="-0.044175496"
       width="1.0892536"
       x="-0.044626798"
       id="filter4350"
       style="color-interpolation-filters:sRGB"
       inkscape:collect="always">
      <feGaussianBlur
         id="feGaussianBlur4352"
         stdDeviation="8.7848425"
         inkscape:collect="always" />
    </filter>
    <filter
       id="filter4354"
       style="color-interpolation-filters:sRGB"
       inkscape:collect="always">
      <feGaussianBlur
         id="feGaussianBlur4356"
         stdDeviation="8.7848425"
         inkscape:collect="always" />
    </filter>
    <filter
       id="filter4358"
       style="color-interpolation-filters:sRGB"
       inkscape:collect="always">
      <feGaussianBlur
         id="feGaussianBlur4360"
         stdDeviation="8.7848425"
         inkscape:collect="always" />
    </filter>
  </defs>
  <sodipodi:namedview
     id="base"
     pagecolor="#ffffff"
     bordercolor="#666666"
     borderopacity="1.0"
     inkscape:pageopacity="0"
     inkscape:pageshadow="2"
     inkscape:zoom="1.979899"
     inkscape:cx="334.75948"
     inkscape:cy="128.51438"
     inkscape:document-units="px"
     inkscape:current-layer="layer1"
     showgrid="false"
     inkscape:window-width="1918"
     inkscape:window-height="1078"
     inkscape:window-x="0"
     inkscape:window-y="0"
     inkscape:window-maximized="0"
     showborder="true"
     inkscape:showpageshadow="false"
     fit-margin-top="15"
     fit-margin-left="15"
     fit-margin-right="15"
     fit-margin-bottom="15" />
  <metadata
     id="metadata7">
    <rdf:RDF>
      <cc:Work
         rdf:about="">
        <dc:format>image/svg+xml</dc:format>
        <dc:type
           rdf:resource="http://purl.org/dc/dcmitype/StillImage" />
        <dc:title />
      </cc:Work>
    </rdf:RDF>
  </metadata>
  <g
     inkscape:label="Layer 1"
     inkscape:groupmode="layer"
     id="layer1"
     transform="translate(-14.527422,-8.5207844)">
    <image
       sodipodi:absref="/home/fommil/Projects/scalasphere2016/ensime/images/Octocat.png"
       xlink:href="Octocat.png"
       y="165.7628"
       x="29.527422"
       id="image3087"
       height="138.40625"
       width="166.50377" />
    <image
       sodipodi:absref="/home/fommil/Projects/scalasphere2016/ensime/images/docker.png"
       xlink:href="docker.png"
       y="23.520784"
       x="300.75577"
       id="image3195"
       height="75.259308"
       width="222.14285" />
    <path
       style="fill:none;stroke:#000000;stroke-width:3.70560479;stroke-linecap:butt;stroke-linejoin:miter;stroke-miterlimit:3.9000001;stroke-dasharray:none;stroke-opacity:1;marker-mid:none;marker-end:url(#Arrow1Mend)"
       d="m 182.14286,198.07647 161.29071,0"
       id="path4105"
       inkscape:connector-type="polyline"
       inkscape:connector-curvature="0" />
    <path
       style="fill:none;stroke:#000000;stroke-width:3;stroke-linecap:butt;stroke-linejoin:miter;stroke-miterlimit:3.9000001;stroke-dasharray:none;stroke-opacity:1;marker-mid:none;marker-end:url(#Arrow1Mend)"
       d="m 113.04999,92.44424 -0.37765,62.36404"
       id="path4105-4"
       inkscape:connector-type="polyline"
       inkscape:connector-curvature="0" />
    <path
       style="fill:none;stroke:#000000;stroke-width:3.31927323;stroke-linecap:butt;stroke-linejoin:miter;stroke-miterlimit:3.9000001;stroke-dasharray:none;stroke-opacity:1;marker-mid:none;marker-end:url(#Arrow1Mend)"
       d="m 395.66478,84.523657 -0.37947,55.857293"
       id="path4105-4-7"
       inkscape:connector-type="polyline"
       inkscape:connector-curvature="0" />
    <text
       xml:space="preserve"
       style="font-size:40px;font-style:normal;font-weight:normal;line-height:125%;letter-spacing:0px;word-spacing:0px;fill:#000000;fill-opacity:1;stroke:none;font-family:Sans"
       x="62.142857"
       y="78.790749"
       id="text5162"
       sodipodi:linespacing="125%"><tspan
         sodipodi:role="line"
         id="tspan5164"
         x="62.142857"
         y="78.790749"
         style="font-size:32px">Merge</tspan></text>
    <path
       style="fill:none;stroke:#000000;stroke-width:3;stroke-linecap:butt;stroke-linejoin:miter;stroke-miterlimit:3.9000001;stroke-dasharray:none;stroke-opacity:1;marker-mid:none;marker-end:url(#Arrow1Mend)"
       d="m 391.96839,212.8971 -0.37765,62.36404"
       id="path4105-4-9"
       inkscape:connector-type="polyline"
       inkscape:connector-curvature="0" />
    <path
       style="fill:none;stroke:#000000;stroke-width:3;stroke-linecap:butt;stroke-linejoin:miter;stroke-miterlimit:3.9000001;stroke-dasharray:none;stroke-opacity:1;marker-mid:none;marker-end:url(#Arrow1Mend)"
       d="m 425.58187,213.40218 -0.37765,62.36404"
       id="path4105-4-9-1"
       inkscape:connector-type="polyline"
       inkscape:connector-curvature="0" />
    <image
       sodipodi:absref="/home/fommil/Projects/scalasphere2016/ensime/images/sonatype.png"
       xlink:href="sonatype.png"
       y="287.19635"
       x="421.56558"
       id="image4273"
       height="24.04521"
       width="97.137184" />
    <image
       sodipodi:absref="/home/fommil/Projects/scalasphere2016/ensime/images/drone.png"
       xlink:href="drone.png"
       y="139.77716"
       x="366.20523"
       id="image3098"
       height="87.088821"
       width="87.088821" />
    <g
       transform="matrix(0.04848015,0,0,0.04848015,342.29991,308.74295)"
       id="layer1-2">
      <g
         transform="matrix(1.532388,0,0,1.3939671,-54.912136,-41.792396)"
         id="g3699">
        <path
           style="fill:#019833;fill-opacity:1;stroke:#000000;stroke-width:0.94571567px;stroke-linecap:butt;stroke-linejoin:miter;stroke-opacity:1"
           d="M 260.50744,170.69515 105.98412,340.79094 259.8636,510.178 414.38691,340.08221 260.50744,170.69515 Z"
           id="path2836"
           inkscape:connector-curvature="0" />
        <path
           style="fill:#66fe98;fill-opacity:1;stroke:#000000;stroke-width:0.94571567px;stroke-linecap:butt;stroke-linejoin:miter;stroke-opacity:1"
           d="m 259.8636,171.40389 0,-14.88338 -168.044108,184.97916 14.164628,0 153.87948,-170.09578 z"
           id="path2838"
           inkscape:connector-curvature="0" />
        <path
           id="path2840"
           d="m 259.47729,171.40389 0,-14.88338 168.0441,184.97916 -14.16463,0 -153.87947,-170.09578 z"
           style="fill:#45fe02;fill-opacity:1;stroke:#000000;stroke-width:0.94571567px;stroke-linecap:butt;stroke-linejoin:miter;stroke-opacity:1"
           inkscape:connector-curvature="0" />
        <path
           id="path2842"
           d="m 259.8636,511.17022 0,14.88338 -168.044108,-184.97916 14.164628,0 153.87948,170.09578 z"
           style="fill:#017d17;fill-opacity:1;stroke:#000000;stroke-width:0.94571567px;stroke-linecap:butt;stroke-linejoin:miter;stroke-opacity:1"
           inkscape:connector-curvature="0" />
        <path
           style="fill:none;stroke:#000000;stroke-width:18.91431427;stroke-linecap:butt;stroke-linejoin:miter;stroke-miterlimit:4;stroke-dasharray:none;stroke-opacity:1"
           d="m 122.99448,175.30643 108.35396,0 6.60139,7.26665 0,22.30116 -5.23559,7.01608 -11.83699,0 0,110.75406 101.98019,-110.75406 -16.84494,0 -5.9185,-7.01608 0,-23.55403 5.46323,-5.51264 109.71976,0 5.46322,6.01379 0,22.05058 -248.12143,280.14258 -28.22666,0 -8.17033,-5.19252 0,-267.93397 -13.68257,0 -5.00795,-5.51264 0,-23.55403 5.46321,-6.51493 z"
           id="path3650"
           inkscape:connector-curvature="0" />
        <path
           style="fill:#005d04;fill-opacity:1;stroke:#000000;stroke-width:0.94571567px;stroke-linecap:butt;stroke-linejoin:miter;stroke-opacity:1"
           d="m 259.47729,511.17022 0,14.88338 168.0441,-184.97916 -14.16463,0 -153.87947,170.09578 z"
           id="path2844"
           inkscape:connector-curvature="0" />
        <path
           id="path2846"
           d="M 259.41018,155.14848 90.734026,340.82339 258.70737,525.72467 427.38353,340.04975 259.41018,155.14848 Z"
           style="fill:none;stroke:#000000;stroke-width:5.67429399;stroke-linecap:butt;stroke-linejoin:miter;stroke-miterlimit:4;stroke-dasharray:none;stroke-opacity:1"
           inkscape:connector-curvature="0" />
        <path
           style="fill:#fefefe;fill-opacity:1;stroke:#000000;stroke-width:0.94571567px;stroke-linecap:butt;stroke-linejoin:miter;stroke-opacity:1"
           d="m 232.50008,186.64163 6.11655,-3.54366 -6.27751,-6.91014 -109.29305,0 -5.55319,6.11281 0,23.1224 6.15679,6.77725 2.93756,-6.77725 -3.86308,-4.2524 0,-16.30085 2.89731,-2.83492 104.30324,0 2.57538,4.60676 z"
           id="path3640"
           inkscape:connector-curvature="0" />
        <path
           style="fill:none;stroke:#000000;stroke-width:1px;stroke-linecap:butt;stroke-linejoin:miter;stroke-opacity:1"
           id="path3632"
           d="m 828.9375,369.5 -4.28125,4.28125 0,15.71875 3.75,3.75 19.8125,0 0,15.1875 -131.0625,132.84375 0,-147.84375 21.78125,0 4.46875,-4.46875 0,-15.90625 -4.125,-3.1875 -114.625,0 -3.75,3.75 0,16.25 3.8125,3.8125 19.9375,0 0,272.25 3.75,3.75 22.65625,0 274.65625,-283.40625 0,-12.5 -4.28125,-4.28125 -112.5,0 z"
           transform="matrix(0.90138601,0,0,0.99222542,-437.42287,-185.30615)"
           inkscape:connector-curvature="0" />
        <path
           style="fill:#fefefe;fill-opacity:1;stroke:#000000;stroke-width:0.94571567px;stroke-linecap:butt;stroke-linejoin:miter;stroke-opacity:1"
           d="m 143.48158,204.87424 0,270.62073 3.18688,4.0092 -2.49916,5.24301 -7.06148,-7.74876 0,-265.1081 z"
           id="path3646"
           inkscape:connector-curvature="0" />
        <path
           style="fill:#808080;fill-opacity:1;stroke:#000000;stroke-width:0.94571567px;stroke-linecap:butt;stroke-linejoin:miter;stroke-opacity:1"
           d="m 125.82451,204.87424 -1.82108,6.51494 13.2028,0 7.2843,-6.51494 -18.66602,0 z"
           id="path3644"
           inkscape:connector-curvature="0" />
        <path
           style="fill:#fefefe;fill-opacity:1;stroke:#000000;stroke-width:0.94571567px;stroke-linecap:butt;stroke-linejoin:miter;stroke-opacity:1"
           d="m 307.18636,212.19144 2.89731,-6.55577 -4.18501,-4.2524 0,-14.52901 4.82886,-5.31551 100.76208,0 3.86308,5.66987 5.4727,-4.2524 -5.63366,-6.20141 -108.32729,0 -5.39221,5.93564 0,23.29957 5.59342,5.80276 m -87.54309,111.87785 -10.52288,28.10566 118.7898,-131.1155 0,-15.59211 -108.26692,118.60195 z"
           id="path3638"
           inkscape:connector-curvature="0" />
        <path
           style="fill:#808080;fill-opacity:1;stroke:#000000;stroke-width:0.94571567px;stroke-linecap:butt;stroke-linejoin:miter;stroke-opacity:1"
           d="m 232.25896,185.83056 5.2356,-3.75862 0,22.8023 -6.03231,6.64023 -11.72317,0 0,112.38277 -10.69882,27.81381 0,-146.83681 19.57656,0 3.64214,-3.25747 0,-15.78621 z"
           id="path3642"
           inkscape:connector-curvature="0" />
        <path
           style="fill:#cccccc;fill-opacity:1;stroke:#000000;stroke-width:1px;stroke-linecap:butt;stroke-linejoin:miter;stroke-opacity:1"
           id="path3622"
           d="m 828.9375,369.5 -4.28125,4.28125 0,15.71875 3.75,3.75 19.8125,0 0,15.1875 -131.0625,132.84375 0,-147.84375 21.78125,0 4.46875,-4.46875 0,-15.90625 -4.125,-3.1875 -114.625,0 -3.75,3.75 0,16.25 3.8125,3.8125 19.9375,0 0,272.25 3.75,3.75 22.65625,0 274.65625,-283.40625 0,-12.5 -4.28125,-4.28125 -112.5,0 z"
           transform="matrix(0.90138601,0,0,0.99222542,-437.42287,-185.30615)"
           inkscape:connector-curvature="0" />
        <path
           style="fill:#808080;fill-opacity:1;stroke:#000000;stroke-width:0.94571567px;stroke-linecap:butt;stroke-linejoin:miter;stroke-opacity:1"
           d="m 415.35268,185.9329 5.49849,-3.49448 0,21.92152 -249.39111,280.5213 -26.47746,0 2.52966,-5.5331 20.28119,0 247.23731,-281.01241 z"
           id="path3636"
           inkscape:connector-curvature="0" />
        <path
           style="fill:#808080;fill-opacity:1;stroke:#000000;stroke-width:0.94571567px;stroke-linecap:butt;stroke-linejoin:miter;stroke-opacity:1"
           d="m 327.29631,205.25009 -5.57703,6.38966 -14.56861,0 3.41452,-6.38966 c 0.11382,0 16.73112,0 16.73112,0 z"
           id="path3652"
           inkscape:connector-curvature="0" />
        <g
           id="g3673"
           transform="matrix(0.90138601,0,0,0.99222542,-92.530288,-192.23791)">
          <path
             d="m 399.78125,560 a 1.2330102,1.2330102 0 0 0 -0.5625,0.28125 l -5.3125,4.5625 A 1.2330102,1.2330102 0 0 0 393.5625,565.375 L 388.25,580.25 a 1.2330102,1.2330102 0 0 0 0.28125,1.28125 l 4.0625,4.0625 a 1.2330102,1.2330102 0 0 0 0.875,0.34375 l 16.40625,0 a 1.2330102,1.2330102 0 0 0 0.875,-0.34375 l 4.28125,-4.3125 a 1.2330102,1.2330102 0 0 0 0.3125,-0.53125 l 4.5625,-15.65625 a 1.2330102,1.2330102 0 0 0 -0.3125,-1.21875 l -3.53125,-3.53125 A 1.2330102,1.2330102 0 0 0 415.1875,560 l -15.15625,0 a 1.2330102,1.2330102 0 0 0 -0.25,0 z m -30.0625,41.9375 a 1.2330102,1.2330102 0 0 0 -0.9375,0.90625 l -2.03125,8.0625 a 1.2330102,1.2330102 0 0 0 1.1875,1.53125 l 9.65625,0 -23.9375,68.34375 a 1.2330102,1.2330102 0 0 0 1.15625,1.625 l 34.84375,0 a 1.2330102,1.2330102 0 0 0 1.1875,-0.84375 l 2.28125,-7.34375 a 1.2330102,1.2330102 0 0 0 -1.1875,-1.59375 l -7.875,0 23.6875,-69.0625 a 1.2330102,1.2330102 0 0 0 -1.15625,-1.625 l -36.625,0 a 1.2330102,1.2330102 0 0 0 -0.25,0 z m 110.875,0.25 a 1.2330102,1.2330102 0 0 0 -0.6875,0.40625 l -7.25,8.1875 -11.53125,0 -7.6875,-7.96875 a 1.2330102,1.2330102 0 0 0 -0.875,-0.375 l -27.53125,0 A 1.2330102,1.2330102 0 0 0 423.875,603.25 l -2.53125,7.5625 a 1.2330102,1.2330102 0 0 0 1.15625,1.625 l 7.375,0 -22.9375,67.59375 a 1.2330102,1.2330102 0 0 0 1.15625,1.625 l 29.3125,0 a 1.2330102,1.2330102 0 0 0 1.15625,-0.8125 l 2.25,-6.59375 a 1.2330102,1.2330102 0 0 0 -1.15625,-1.625 l -5.125,0 14.625,-46.03125 26.46875,0 -16.6875,53.46875 a 1.2330102,1.2330102 0 0 0 1.1875,1.59375 l 28.28125,0 a 1.2330102,1.2330102 0 0 0 1.125,-0.75 l 2.53125,-6.0625 a 1.2330102,1.2330102 0 0 0 -1.125,-1.6875 l -5.125,0 14.875,-46.8125 25.1875,0 -16.9375,53.71875 a 1.2330102,1.2330102 0 0 0 1.1875,1.59375 l 31.0625,0 a 1.2330102,1.2330102 0 0 0 1.15625,-0.78125 l 2.53125,-6.59375 a 1.2330102,1.2330102 0 0 0 -1.15625,-1.65625 l -6.15625,0 18.71875,-60.78125 a 1.2330102,1.2330102 0 0 0 -0.1875,-1.125 l -5.8125,-7.8125 a 1.2330102,1.2330102 0 0 0 -1,-0.46875 l -22.21875,0 a 1.2330102,1.2330102 0 0 0 -0.90625,0.375 l -7,7.6875 -12.25,0 -7.25,-7.9375 a 1.2330102,1.2330102 0 0 0 -0.90625,-0.375 l -17.90625,0 a 1.2330102,1.2330102 0 0 0 -0.25,0 z"
             id="path3671"
             style="fill:#cccccc;fill-opacity:1;stroke:#000000;stroke-width:8;stroke-linecap:butt;stroke-linejoin:miter;stroke-miterlimit:10;stroke-dasharray:none;stroke-opacity:1"
             inkscape:connector-curvature="0" />
          <path
             style="fill:#cccccc;fill-opacity:1;stroke:#000000;stroke-width:1;stroke-linecap:butt;stroke-linejoin:miter;stroke-miterlimit:10;stroke-dasharray:none;stroke-opacity:1"
             id="path3665"
             d="m 400.03125,561.21875 -5.3125,4.5625 -5.3125,14.875 4.0625,4.0625 16.40625,0 4.28125,-4.3125 4.5625,-15.65625 -3.53125,-3.53125 -15.15625,0 z m -30.0625,41.9375 -2.03125,8.0625 11.375,0 -24.5,69.96875 34.84375,0 2.28125,-7.34375 -9.59375,0 24.25,-70.6875 -36.625,0 z m 110.875,0.25 L 473.25,612 l -12.625,0 -8.0625,-8.34375 -27.53125,0 -2.53125,7.5625 9.09375,0 -23.5,69.21875 29.3125,0 2.25,-6.59375 -6.8125,0 15.40625,-48.46875 29.0625,0 -17.1875,55.0625 28.28125,0 2.53125,-6.0625 -6.8125,0 15.65625,-49.25 27.78125,0 -17.4375,55.3125 31.0625,0 2.53125,-6.59375 -7.84375,0 19.21875,-62.375 -5.8125,-7.8125 -22.21875,0 -7.34375,8.0625 -13.375,0 -7.59375,-8.3125 -17.90625,0 z"
             inkscape:connector-curvature="0" />
        </g>
      </g>
    </g>
    <g
       id="g4435"
       transform="matrix(0.10765954,0,0,0.10765954,379.19558,316.29334)">
      <path
         id="path4415"
         d="m 0,0 256,0 0,29.19 c -1.12,-2.68 -2.4,-5.57 -5,-7.14 -2.42,-1.66 -5.46,-1.63 -8.26,-1.9 0.03,-3.46 0.19,-7.14 -1.56,-10.27 C 239.07,5.49 234.63,2.79 230.13,1.37 227.11,1.02 224.07,1.25 221.04,1.21 157.34,1.2 93.65,1.23 29.95,1.2 24.91,1.28 20.09,4.14 16.76,7.81 13.29,11.63 13.19,17.03 13.38,21.89 7.34,22.32 2.23,26.65 0,32.15 L 0,0 Z"
         inkscape:connector-curvature="0"
         style="fill:#ffffff" />
      <path
         id="path4417"
         d="m 16.76,7.81 c 3.33,-3.67 8.15,-6.53 13.19,-6.61 63.7,0.03 127.39,0 191.09,0.01 3.03,0.04 6.07,-0.19 9.09,0.16 4.5,1.42 8.94,4.12 11.05,8.51 1.75,3.13 1.59,6.81 1.56,10.27 0.2,42.28 0.13,84.56 0.14,126.84 -0.13,22.07 0.29,44.15 -0.33,66.2 -0.17,-8.04 -0.04,-16.08 -0.5,-24.11 -1.8,6.18 -7.31,11.44 -14.02,11.3 -66,0.04 -132.01,-0.01 -198.01,0.03 -7.3,0.27 -13.62,-5.08 -16.06,-11.72 -0.31,8.13 -0.29,16.27 -0.28,24.4 -0.73,-6 -0.18,-12.06 -0.38,-18.08 C 13.3,137.3 13.23,79.59 13.38,21.89 13.19,17.03 13.29,11.63 16.76,7.81 Z"
         inkscape:connector-curvature="0"
         style="fill:#4c4c4c" />
      <path
         id="path4419"
         d="m 242.74,20.15 c 2.8,0.27 5.84,0.24 8.26,1.9 2.6,1.57 3.88,4.46 5,7.14 l 0,202.31 c -0.92,5.04 -2.76,10.38 -7.02,13.57 -3.43,2.58 -7.98,1.93 -11.99,2.05 C 165.65,247.06 94.31,247.11 22.97,247.1 12.36,247.3 3.89,238.74 0,229.53 L 0,32.15 c 2.23,-5.5 7.34,-9.83 13.38,-10.26 -0.15,57.7 -0.08,115.41 -0.08,173.12 0.2,6.02 -0.35,12.08 0.38,18.08 1.6,7.37 8.67,13.22 16.26,13.1 66.07,-0.03 132.14,0.02 198.21,-0.02 7.15,-0.06 13.3,-6.07 14.4,-12.98 0.62,-22.05 0.2,-44.13 0.33,-66.2 -0.01,-42.28 0.06,-84.56 -0.14,-126.84 z"
         inkscape:connector-curvature="0"
         style="fill:#d9d9d9" />
      <path
         id="path4421"
         d="m 99.48,58.5 c 9.2,-10.45 24.18,-14.08 37.6,-12.16 10.5,1.38 20.4,6.35 28.02,13.66 -4.19,5.14 -8.35,10.28 -12.47,15.47 -7.68,-6.16 -17.82,-10.37 -27.75,-7.97 -4.47,0.84 -8.52,4.81 -8.14,9.58 0.43,4.26 4.31,6.82 7.88,8.42 8.12,3.65 16.51,6.66 24.68,10.21 6.75,3.07 13.07,7.95 16.14,14.88 4.48,10.09 3.34,22.61 -3.32,31.49 -5.05,6.85 -12.79,11.31 -20.94,13.38 -18.5,4.56 -39.14,-0.72 -53.09,-13.7 0.03,-1.15 1.29,-1.87 1.86,-2.79 4.01,-4.66 7.87,-9.44 11.83,-14.13 7.86,6.56 17.74,11.63 28.21,11.22 4.89,-0.27 10.99,-1.85 12.64,-7.12 1.87,-4.49 -0.9,-9.47 -5.06,-11.43 -8.83,-4.48 -18.24,-7.7 -27.19,-11.93 C 103.96,102.42 98.24,97.45 95.09,90.93 90.02,80.53 91.62,67.11 99.48,58.5 Z"
         inkscape:connector-curvature="0"
         style="fill:#ff8100" />
      <path
         id="path4423"
         d="m 228.03,200.38 c 6.71,0.14 12.22,-5.12 14.02,-11.3 0.46,8.03 0.33,16.07 0.5,24.11 -1.1,6.91 -7.25,12.92 -14.4,12.98 -66.07,0.04 -132.14,-0.01 -198.21,0.02 -7.59,0.12 -14.66,-5.73 -16.26,-13.1 -0.01,-8.13 -0.03,-16.27 0.28,-24.4 2.44,6.64 8.76,11.99 16.06,11.72 66,-0.04 132.01,0.01 198.01,-0.03 z"
         inkscape:connector-curvature="0"
         style="fill:#262626" />
      <path
         id="path4425"
         d="m 0,229.53 c 3.89,9.21 12.36,17.77 22.97,17.57 71.34,0.01 142.68,-0.04 214.02,0.02 4.01,-0.12 8.56,0.53 11.99,-2.05 4.26,-3.19 6.1,-8.53 7.02,-13.57 l 0,7.77 c -1.24,6.19 -4.21,12.68 -10.39,15.26 -3.16,0.55 -6.4,0.18 -9.58,0.26 -70.02,0 -140.03,-0.03 -210.03,0.01 -3.21,-0.1 -6.69,0.54 -9.61,-1.13 C 8.57,250.23 1.59,243.57 0,234.9 l 0,-5.37 z"
         inkscape:connector-curvature="0"
         style="fill:#999999" />
      <path
         id="path4427"
         d="m 0,234.9 c 1.59,8.67 8.57,15.33 16.39,18.77 2.92,1.67 6.4,1.03 9.61,1.13 70,-0.04 140.01,-0.01 210.03,-0.01 3.18,-0.08 6.42,0.29 9.58,-0.26 6.18,-2.58 9.15,-9.07 10.39,-15.26 L 256,256 0,256 0,234.9 Z"
         inkscape:connector-curvature="0"
         style="fill:#ffffff" />
    </g>
    <path
       style="fill:none;stroke:#000000;stroke-width:3.31927323;stroke-linecap:butt;stroke-linejoin:miter;stroke-miterlimit:3.9000001;stroke-dasharray:none;stroke-opacity:1;marker-mid:none;marker-end:url(#Arrow1Mend-6)"
       d="m 426.40692,145.96793 1.35497,-55.842138"
       id="path4105-4-7-7"
       inkscape:connector-type="polyline"
       inkscape:connector-curvature="0" />
    <g
       id="g4563"
       transform="matrix(0.20862081,0,0,0.20862081,345.45165,287.68298)">
      <path
         id="path4549"
         style="fill:none;stroke:#66595c;stroke-width:5;stroke-linecap:round"
         d="M 103.96875,29.43727 C 106.08143,18.684552 104.89996,10.523975 99.90625,7.2810201 98.241679,6.2000351 96.24602,5.7270015 94,5.8122701 81.871494,6.2727205 62.301679,22.972344 46.3125,47.59352 27.362362,76.774173 20.627996,106.01897 31.28125,112.93727 c 5.056946,3.28402 13.115147,0.95604 22.21875,-5.53125"
         inkscape:connector-curvature="0" />
      <path
         id="path4551"
         style="fill:none;stroke:#66595c;stroke-width:5;stroke-linecap:round"
         d="m 113.6875,77.15602 c 8.99437,-3.489189 14.52504,-8.265012 14.8125,-13.75 0.6648,-12.685141 -26.94124,-24.429026 -61.6875,-26.25 -3.257461,-0.170716 -6.460588,-0.260544 -9.59375,-0.25 -30.287234,0.101927 -53.9287749,8.410341 -54.53125,19.90625 -0.286892,5.474225 4.7004836,10.782383 13.25,15.1875"
         inkscape:connector-curvature="0" />
      <path
         id="path4553"
         style="fill:none;stroke:#66595c;stroke-width:5;stroke-linecap:round"
         d="M 57,10.53102 C 50.846125,5.4251295 45.074552,2.683237 40.4375,3.0310201 39.20289,3.123617 38.061068,3.4278792 37,3.9685201 25.681946,9.7353567 29.297632,39.560643 45.09375,70.56227 c 15.796118,31.00163 37.775696,51.45434 49.09375,45.6875 10.8844,-5.54588 7.94666,-33.337754 -6.34375,-63.03125"
         inkscape:connector-curvature="0" />
      <path
         id="path4555"
         style="fill:#66595c"
         d="m 73.5,61 a 7.5,7.5 0 0 1 -15,0 7.5,7.5 0 1 1 15,0 z"
         inkscape:connector-curvature="0" />
    </g>
    <g
       id="g4451"
       transform="matrix(0.05496247,0,0,0.05496247,378.49089,286.30739)">
      <path
         transform="matrix(0.98684957,0,0,0.98684957,2.2673725,1.4277352)"
         d="m 491.66937,257.75916 c 0,131.79436 -105.76,238.63481 -236.22155,238.63481 -130.46155,0 -236.221539,-106.84045 -236.221539,-238.63481 0,-131.79437 105.759989,-238.634808 236.221539,-238.634808 130.46155,0 236.22155,106.840438 236.22155,238.634808 z"
         id="path4351"
         style="opacity:0.40500004;fill:#211f46;fill-opacity:0.99607843;stroke:#0a0b1b;stroke-width:8.53333378;stroke-miterlimit:4;stroke-dasharray:none;stroke-opacity:1;filter:url(#filter4350)"
         inkscape:connector-curvature="0" />
      <path
         inkscape:connector-curvature="0"
         style="opacity:1;fill:url(#linearGradient4274);fill-opacity:1;stroke:url(#linearGradient4298);stroke-width:13.33816814;stroke-miterlimit:4;stroke-dasharray:none;stroke-opacity:1"
         id="path4864"
         d="m 487.4711,255.79725 c 0,130.06121 -104.36921,235.49665 -233.11513,235.49665 -128.74592,0 -233.11515,-105.43544 -233.11515,-235.49665 0,-130.06123 104.36923,-235.496654 233.11515,-235.496654 128.74592,0 233.11513,105.435424 233.11513,235.496654 z" />
      <path
         inkscape:connector-curvature="0"
         style="fill:#ffffff;fill-opacity:1;fill-rule:evenodd;stroke:#000000;stroke-width:0;stroke-linecap:butt;stroke-linejoin:miter;stroke-miterlimit:4;stroke-dasharray:none;stroke-opacity:1"
         id="path4839"
         d="m 166.62553,421.98029 c 0,0 19.73851,1.39634 45.13121,-0.84159 10.2834,-0.9063 49.3267,-4.74128 78.51691,-11.14289 0,0 35.58988,-7.61669 54.63012,-14.63335 19.92251,-7.34185 30.76364,-13.57304 35.64327,-22.40243 -0.2128,-1.80907 1.50248,-8.22438 -7.68499,-12.07788 -23.48871,-9.85199 -50.73002,-8.06998 -104.63379,-9.21285 -59.77721,-2.05391 -79.66272,-12.05971 -90.25554,-20.11838 -10.15792,-8.17519 -5.05007,-30.79254 38.47416,-50.71499 21.92439,-10.60898 107.8705,-30.18698 107.8705,-30.18698 -28.94507,-14.30725 -82.91858,-39.45893 -94.01345,-44.89023 -9.73071,-4.76348 -25.30298,-11.93595 -28.67844,-20.61368 -3.82715,-8.33089 9.03832,-15.50726 16.22478,-17.56236 23.14478,-6.67602 55.81823,-10.82538 85.5548,-11.29122 14.94724,-0.23417 17.37345,-1.19586 17.37345,-1.19586 20.62423,-3.42116 34.20131,-17.53175 28.54459,-39.87876 -5.07835,-22.810454 -31.86177,-36.213649 -57.31379,-31.573609 -23.96826,4.369559 -81.73786,21.150069 -81.73786,21.150069 71.40751,-0.61803 83.35925,0.57378 88.69699,8.03676 3.15235,4.40742 -1.4324,10.45068 -20.47644,13.56099 -20.73299,3.38616 -63.83128,7.46399 -63.83128,7.46399 -41.34483,2.4554 -70.46816,2.61974 -79.20292,21.11314 -5.70654,12.08196 6.08535,22.7633 11.25379,29.4493 21.84068,24.28905 53.38818,37.38879 73.69477,47.03553 7.64055,3.62963 30.05865,10.48407 30.05865,10.48407 -65.87823,-3.62335 -113.40032,16.6055 -141.27644,39.89622 -31.528806,29.16261 -17.581427,63.92354 47.01243,85.3268 38.15167,12.6416 57.07242,18.58695 113.98151,13.46232 33.51999,-1.80673 38.80404,-0.73155 39.13823,2.01892 0.4705,3.87242 -37.23104,13.49165 -47.52395,16.4606 -26.18534,7.55306 -94.82758,22.80438 -95.17127,22.87835 z" />
      <rect
         style="display:none;fill:none"
         id="rect4772"
         y="0.20100001"
         x="0.171"
         height="512"
         width="512" />
      <g
         style="display:none"
         id="g4788">
        <g
           style="display:inline"
           id="g4790" />
      </g>
      <g
         style="display:none"
         id="g4806">
        <g
           style="display:inline"
           id="g4808">
          <path
             style="display:none;fill:#050505"
             id="path4810"
             d="m 349.098,256.651 c -0.265,-0.254 37.637,27.605 39.421,25.012 6.362,-9.252 82.046,-93.137 84.784,-116.236 0.242,-2.003 -0.516,-4.096 -0.516,-4.096 0,0 -1.19,-0.144 -6.325,-4.314 -2.692,-2.192 -5.483,-4.581 -5.483,-4.581 -16.054,0.998 -57.885,41.559 -111.062,103.568"
             inkscape:connector-curvature="0" />
        </g>
      </g>
      <g
         transform="matrix(0.98684957,0,0,0.98684957,2.2673725,1.4277352)"
         style="opacity:0.40500004;stroke:none;filter:url(#filter4354)"
         id="g4796">
        <g
           style="stroke:none"
           id="g4800" />
      </g>
      <g
         transform="matrix(0.98684957,0,0,0.98684957,2.2673725,1.4277352)"
         style="opacity:0.40500004;filter:url(#filter4358)"
         id="g4774" />
    </g>
  </g>
</svg>
