<?xml version="1.0" encoding="UTF-8" standalone="no"?>
<!--
Copyright: 2016 Victoria Leontieva
Licence: https://creativecommons.org/licenses/by-sa/3.0/
-->

<svg
   xmlns:dc="http://purl.org/dc/elements/1.1/"
   xmlns:cc="http://creativecommons.org/ns#"
   xmlns:rdf="http://www.w3.org/1999/02/22-rdf-syntax-ns#"
   xmlns:svg="http://www.w3.org/2000/svg"
   xmlns="http://www.w3.org/2000/svg"
   xmlns:sodipodi="http://sodipodi.sourceforge.net/DTD/sodipodi-0.dtd"
   xmlns:inkscape="http://www.inkscape.org/namespaces/inkscape"
   version="1.1"
   id="Ensime_Logo"
   x="0px"
   y="0px"
   viewBox="-33 -60 185 210"
   xml:space="preserve"
   inkscape:version="0.91 r13725"
   sodipodi:docname="ensime-logo-shadow.svg"
   width="185"
   height="210"><metadata
     id="metadata18"><rdf:RDF><cc:Work
         rdf:about=""><dc:format>image/svg+xml</dc:format><dc:type
           rdf:resource="http://purl.org/dc/dcmitype/StillImage" /><dc:title></dc:title><cc:license
           rdf:resource="http://creativecommons.org/licenses/by-sa/3.0/" /><dc:creator><cc:Agent><dc:title>Victoria Leontieva</dc:title></cc:Agent></dc:creator><dc:date>2016</dc:date></cc:Work><cc:License
         rdf:about="http://creativecommons.org/licenses/by-sa/3.0/"><cc:permits
           rdf:resource="http://creativecommons.org/ns#Reproduction" /><cc:permits
           rdf:resource="http://creativecommons.org/ns#Distribution" /><cc:requires
           rdf:resource="http://creativecommons.org/ns#Notice" /><cc:requires
           rdf:resource="http://creativecommons.org/ns#Attribution" /><cc:permits
           rdf:resource="http://creativecommons.org/ns#DerivativeWorks" /><cc:requires
           rdf:resource="http://creativecommons.org/ns#ShareAlike" /></cc:License></rdf:RDF></metadata><defs
     id="defs16" /><sodipodi:namedview
     pagecolor="#000000"
     bordercolor="#666666"
     borderopacity="1"
     objecttolerance="10"
     gridtolerance="10"
     guidetolerance="10"
     inkscape:pageopacity="0"
     inkscape:pageshadow="2"
     inkscape:window-width="1918"
     inkscape:window-height="1078"
     id="namedview14"
     showgrid="false"
     borderlayer="true"
     inkscape:zoom="3.4056571"
     inkscape:cx="13.41734"
     inkscape:cy="98"
     inkscape:window-x="0"
     inkscape:window-y="0"
     inkscape:window-maximized="0"
     inkscape:current-layer="layer1" /><style
     type="text/css"
     id="style3">
        .st0{fill:#223140;}
        .st1{fill:none;}
        .st2{fill:#232F3F;}
        .st3{fill:#F1626B;}
        .st4{fill:#EF4551;}
</style><g
     inkscape:groupmode="layer"
     id="layer1"
     inkscape:label="bg"
     style="display:inline"
     transform="translate(0,14)"><circle
       style="display:inline;fill:#404040;fill-opacity:1;stroke:none;stroke-width:1.63006663;stroke-opacity:1"
       id="path4146"
       cx="57"
       cy="5.9999995"
       r="74.184967" /></g><g
     inkscape:groupmode="layer"
     id="layer2"
     inkscape:label="text"
     style="display:inline"
     transform="translate(0,14)"><g
       id="Logo_Type"
       transform="translate(0,145)"
       style="fill:#ffffff;fill-opacity:1;stroke:#ffffff;stroke-opacity:1"><path
         id="ENS"
         class="st0"
         d="m 0.5,-19.3 -23.2,0 0,-29.8 23.2,0 0,5.3 -17,0 0,6.8 14.5,0 0,5.2 -14.5,0 0,7.4 17,0 0,5.1 z m 12.8,0 -6.4,0 0,-29.8 20,17.3 0,-17.3 6.4,0 0,29.8 -20.1,-16.9 0.1,16.9 0,0 z m 26.2,-4.2 4.4,-4 2.3,1.8 c 1.8,1 3.6,1.5 5.5,1.5 1.2,0 2.5,-0.2 3.9,-0.7 1.5,-0.7 2.3,-1.7 2.4,-2.9 0,-1.4 -0.9,-2.5 -2.8,-3.2 l -7,-1.4 C 45.6,-33 43.5,-34 42,-35.3 c -0.7,-0.7 -1.2,-1.5 -1.6,-2.2 -0.4,-0.8 -0.5,-1.6 -0.5,-2.5 0,-2.7 1.1,-4.9 3.2,-6.5 2.2,-1.6 5.1,-2.5 8.7,-2.5 1.7,0 3.5,0.2 5.5,0.7 1.9,0.5 4.2,1.6 6.7,3.4 l -4.5,3.5 c -0.7,-0.7 -1.6,-1.3 -2.7,-1.8 -1.1,-0.5 -2.6,-0.8 -4.5,-1 -2,0 -3.6,0.3 -4.7,1 -1.1,0.6 -1.6,1.6 -1.4,2.8 0.1,1.7 2.1,2.8 5.9,3.2 2.8,0.4 4.9,0.8 6.1,1.2 1.2,0.4 2.5,1.2 3.8,2.2 1.4,1.3 2.1,2.9 2.1,4.8 0,3 -1.2,5.4 -3.6,7.2 -2.3,1.8 -5.5,2.7 -9.4,2.7 -2.1,0.1 -4.3,-0.3 -6.5,-1.2 -2,-0.9 -3.2,-1.5 -3.6,-1.9 -0.5,-0.4 -1,-0.8 -1.5,-1.3 l 0,0 z m 102.1,4.2 -23.2,0 0,-29.8 23.2,0 0,5.3 -17,0 0,6.8 14.5,0 0,5.2 -14.5,0 0,7.4 17,0 0,5.1 z m -30,0.1 -6.2,0 0,-18.1 -7.3,5.7 -7.4,-5.7 0,18.1 -6.2,0 0,-30.2 13.6,10.8 13.5,-10.8 0,30.2 0,0 z m -41.6,-0.1 0,-29.8 6.5,0 0,29.8 c 0,0 -6.5,0 -6.5,0 z"
         style="fill:#ffffff;fill-opacity:1;stroke:#ffffff;stroke-opacity:1"
         inkscape:connector-curvature="0" /></g></g><g
     inkscape:groupmode="layer"
     id="layer3"
     inkscape:label="logo"
     style="display:inline"
     transform="translate(0,14)"><g
       id="Logo_Sign"
       transform="translate(31,0)"><path
         id="Rectangle-2"
         class="st1"
         d="m 53.1,-11 -25,13.1 -25,-13.1 25,-12.9 25,12.9 z"
         inkscape:connector-curvature="0"
         style="fill:none" /><path
         id="Path-73-Copy-3"
         class="st2"
         d="m 28.1,-49.9 0,0 0,0 50,25.9 0,26.1 -50,-26.1 -50,26.1 0,-26.1 25.1,-13 0,0 24.9,-12.9 0,0 z"
         inkscape:connector-curvature="0"
         style="fill:#232f3f" /><path
         id="Path-73-Copy-2"
         class="st3"
         d="m 28.1,2.1 -50,-25.9 0,25.9 50,26.1 50,-26.1 0,-25.9 -50,25.9 z"
         inkscape:connector-curvature="0"
         style="fill:#f1626b" /><g
         id="Group-5"
         transform="matrix(-1,0,0,1,102,75)"><path
           id="Path-73-Copy-2_1_"
           class="st4"
           d="M 48.9,-49.9 99,-24 l -25.2,13.1 -50.1,-26 25.2,-13 z"
           inkscape:connector-curvature="0"
           style="fill:#ef4551" /></g><path
         id="Path-73-Copy-2_2_"
         class="st3"
         d="m -21.9,12.1 50,25.9 0,26.1 -50,-26.1 0,-25.9 z"
         inkscape:connector-curvature="0"
         style="fill:#f1626b" /></g></g></svg>