<?xml version="1.0" encoding="UTF-8" standalone="no"?>
<svg
   xmlns:dc="http://purl.org/dc/elements/1.1/"
   xmlns:cc="http://creativecommons.org/ns#"
   xmlns:rdf="http://www.w3.org/1999/02/22-rdf-syntax-ns#"
   xmlns:svg="http://www.w3.org/2000/svg"
   xmlns="http://www.w3.org/2000/svg"
   xmlns:xlink="http://www.w3.org/1999/xlink"
   xmlns:sodipodi="http://sodipodi.sourceforge.net/DTD/sodipodi-0.dtd"
   xmlns:inkscape="http://www.inkscape.org/namespaces/inkscape"
   xml:space="preserve"
   id="svg4768"
   viewBox="0.171 0.201 512 512"
   height="48"
   width="48"
   version="1.0"
   inkscape:version="0.91 r13725"
   sodipodi:docname="ensime-emacs-logo-clean-shadow.svg"
   inkscape:export-filename="/home/fommil/Projects/ensime.github.io/public/ensime-emacs-logo-clean-dark.png"
   inkscape:export-xdpi="937.5"
   inkscape:export-ydpi="937.5"><sodipodi:namedview
     pagecolor="#ffffff"
     bordercolor="#666666"
     borderopacity="1"
     objecttolerance="10"
     gridtolerance="10"
     guidetolerance="10"
     inkscape:pageopacity="0"
     inkscape:pageshadow="2"
     inkscape:window-width="1918"
     inkscape:window-height="1078"
     id="namedview3165"
     showgrid="false"
     inkscape:zoom="13.184213"
     inkscape:cx="-27.661745"
     inkscape:cy="23.934978"
     inkscape:window-x="0"
     inkscape:window-y="0"
     inkscape:window-maximized="0"
     inkscape:current-layer="layer3" /><metadata
     id="metadata70"><rdf:RDF><cc:Work
         rdf:about=""><dc:format>image/svg+xml</dc:format><dc:type
           rdf:resource="http://purl.org/dc/dcmitype/StillImage" /><dc:title /></cc:Work></rdf:RDF></metadata><!-- Gnu Emacs Icon
   Copyright (C) 2008-2015 Free Software Foundation, Inc.

   Author: Nicolas Petton <nicolas@petton.fr>

   This file is part of GNU Emacs.

   GNU Emacs is free software: you can redistribute it and/or modify
   it under the terms of the GNU General Public License as published by
   the Free Software Foundation; either version 3 of the License, or
   (at your option) any later version.

   GNU Emacs is distributed in the hope that it will be useful,
   but WITHOUT ANY WARRANTY; without even the implied warranty of
   MERCHANTABILITY or FITNESS FOR A PARTICULAR PURPOSE.  See the
   GNU General Public License for more details.

   You should have received a copy of the GNU General Public License
   along with GNU Emacs.  If not, see <http://www.gnu.org/licenses/>.

--><!-- Created with Inkscape (http://www.inkscape.org/) --><defs
     id="defs4770"><linearGradient
       id="linearGradient4292"><stop
         id="stop4294"
         offset="0"
         style="stop-color:#411f5d;stop-opacity:1" /><stop
         id="stop4296"
         offset="1"
         style="stop-color:#5b2a85;stop-opacity:1" /></linearGradient><linearGradient
       id="linearGradient4284"><stop
         offset="0"
         style="stop-color:#8381c5;stop-opacity:1"
         id="stop4286" /><stop
         id="stop4290"
         style="stop-color:#7e55b3;stop-opacity:0.99607843"
         offset="0.56639391" /><stop
         offset="1"
         style="stop-color:#a52ecb;stop-opacity:0.99215686"
         id="stop4288" /></linearGradient><filter
       height="1.088351"
       y="-0.044175496"
       width="1.0892536"
       x="-0.044626798"
       id="filter4350"
       style="color-interpolation-filters:sRGB"><feGaussianBlur
         id="feGaussianBlur4352"
         stdDeviation="8.7848425" /></filter><linearGradient
       y2="300.73987"
       x2="236.61363"
       y1="-161.8512"
       x1="-122.20192"
       spreadMethod="pad"
       gradientTransform="matrix(0.87385837,0,0,0.82818057,246.00762,250.28138)"
       gradientUnits="userSpaceOnUse"
       id="linearGradient4245"
       xlink:href="#linearGradient4284" /><linearGradient
       y2="66.018341"
       x2="173.94518"
       y1="396.6066"
       x1="447.80933"
       gradientTransform="matrix(0.98684959,0,0,0.98684959,3.0344187,2.5250397)"
       gradientUnits="userSpaceOnUse"
       id="linearGradient4247"
       xlink:href="#linearGradient4292" /></defs><g
     inkscape:groupmode="layer"
     id="layer3"
     inkscape:label="Circle"><circle
       style="fill:#202020;fill-opacity:0.80071175;stroke:none;stroke-width:1.06666672;stroke-miterlimit:4;stroke-dasharray:none;stroke-opacity:1;fill-rule:nonzero"
       id="path3356"
       cx="256.17099"
       cy="256.20099"
       r="256"
       inkscape:export-xdpi="937.5"
       inkscape:export-ydpi="937.5" /></g><g
     inkscape:groupmode="layer"
     id="layer2"
     inkscape:label="Black"
     style="display:inline"><path
       inkscape:connector-curvature="0"
       id="path4101"
       d="m 175.0003,422.31057 c 0,0 19.7385,1.39634 45.1312,-0.84159 10.2834,-0.9063 49.3267,-4.74128 78.5169,-11.14289 0,0 35.5899,-7.61669 54.6301,-14.63335 19.9225,-7.34185 30.7636,-13.57304 35.6433,-22.40243 -0.2128,-1.80907 1.5024,-8.22438 -7.685,-12.07788 -23.4887,-9.85199 -50.73,-8.06998 -104.6338,-9.21285 -59.7772,-2.05391 -79.6627,-12.05971 -90.2556,-20.11838 -10.1579,-8.17519 -5.05,-30.79254 38.4742,-50.71499 21.9244,-10.60898 107.8705,-30.18698 107.8705,-30.18698 -28.9451,-14.30725 -82.9186,-39.45893 -94.0134,-44.89023 -9.7308,-4.76348 -25.303,-11.93595 -28.6785,-20.61368 -3.8271,-8.33089 9.0383,-15.50726 16.2248,-17.56236 23.1448,-6.67602 55.8182,-10.82538 85.5548,-11.29122 14.9472,-0.23417 17.3734,-1.19586 17.3734,-1.19586 20.6243,-3.42116 34.2014,-17.53175 28.5446,-39.87876 -5.0783,-22.81046 -31.8617,-36.21365 -57.3138,-31.57361 -23.9682,4.36956 -81.7378,21.15007 -81.7378,21.15007 71.4075,-0.61803 83.3592,0.57378 88.697,8.03676 3.1523,4.40742 -1.4324,10.45068 -20.4765,13.56099 -20.733,3.38616 -63.8312,7.46399 -63.8312,7.46399 -41.3449,2.4554 -70.4682,2.61974 -79.203,21.11314 -5.7065,12.08196 6.0854,22.7633 11.2538,29.4493 21.8407,24.28905 53.3882,37.38879 73.6948,47.03553 7.6405,3.62963 30.0586,10.48407 30.0586,10.48407 -65.8782,-3.62335 -113.4003,16.6055 -141.2764,39.89622 -31.5288,29.16261 -17.581403,63.92354 47.0124,85.3268 38.1517,12.6416 57.0725,18.58695 113.9815,13.46232 33.52,-1.80673 38.8041,-0.73155 39.1383,2.01892 0.4705,3.87242 -37.2311,13.49165 -47.524,16.4606 -26.1853,7.55306 -94.8276,22.80438 -95.1712,22.87835 z"
       style="display:inline;fill:#000000;fill-opacity:1;fill-rule:evenodd;stroke:#000000;stroke-width:0;stroke-linecap:butt;stroke-linejoin:miter;stroke-miterlimit:4;stroke-opacity:1;stroke-dasharray:none"
       inkscape:export-xdpi="143.45"
       inkscape:export-ydpi="143.45" /></g><rect
     style="fill:none;display:none"
     id="rect4772"
     y="0.20100001"
     x="0.171"
     height="512"
     width="512" /><g
     style="display:none"
     id="g4788"><g
       style="display:inline"
       id="g4790" /></g><g
     style="display:none"
     id="g4806"><g
       style="display:inline"
       id="g4808"><path
         style="fill:#050505;display:none"
         id="path4810"
         d="M 349.098,256.651 C 348.833,256.397 386.735,284.256 388.519,281.663 C 394.881,272.411 470.565,188.526 473.303,165.427 C 473.545,163.424 472.787,161.331 472.787,161.331 C 472.787,161.331 471.597,161.187 466.462,157.017 C 463.77,154.825 460.979,152.436 460.979,152.436 C 444.925,153.434 403.094,193.995 349.917,256.004" /></g></g><g
     inkscape:groupmode="layer"
     id="layer1"
     inkscape:label="Red"
     style="display:inline"><path
       style="fill:#ff0000;fill-opacity:1;fill-rule:evenodd;stroke:#000000;stroke-width:0;stroke-linecap:butt;stroke-linejoin:miter;stroke-miterlimit:4;stroke-dasharray:none;stroke-opacity:1"
       d="m 318.63022,385.08521 c -30.23094,8.47958 -38.16582,11.37806 -48.45872,14.34701 -26.1853,7.55306 -94.8276,22.80438 -95.1712,22.87835 0,0 19.7385,1.39634 45.1312,-0.84159 10.2834,-0.9063 49.3267,-4.74128 78.5169,-11.14289 0,0 35.5899,-7.61669 54.6301,-14.63335 19.9225,-7.34185 30.15681,-12.15721 35.6433,-22.40243 0.50039,-2.72489 0.26313,-8.13612 -5.94418,-11.25681 -1.50361,1.49224 1.53086,2.81676 -31.47335,13.94406"
       id="path4237"
       inkscape:connector-curvature="0"
       sodipodi:nodetypes="cscscsccc"
       inkscape:export-xdpi="143.45"
       inkscape:export-ydpi="143.45" /><path
       style="display:inline;fill:#ff0000;fill-opacity:1;fill-rule:evenodd;stroke:#000000;stroke-width:0;stroke-linecap:butt;stroke-linejoin:miter;stroke-miterlimit:4;stroke-dasharray:none;stroke-opacity:1"
       d="m 258.8397,242.26736 c -65.8782,-3.62335 -113.4003,16.6055 -141.2764,39.89622 -31.5288,29.16261 -13.48287,60.40131 21.12285,74.80917 3.16805,-2.97488 5.49384,-38.0409 86.13545,-75.80654 21.9244,-10.60898 107.8705,-30.18698 107.8705,-30.18698"
       id="path4108"
       inkscape:connector-curvature="0"
       sodipodi:nodetypes="ccccc"
       inkscape:export-xdpi="143.45"
       inkscape:export-ydpi="143.45" /><path
       sodipodi:nodetypes="ccscccccsc"
       inkscape:connector-curvature="0"
       id="path4110"
       d="m 165.83767,195.42087 c 0,0 53.20083,-25.45281 60.38733,-27.50791 23.1448,-6.67602 55.8182,-10.82538 85.5548,-11.29122 14.9472,-0.23417 17.3734,-1.19586 17.3734,-1.19586 20.6243,-3.42116 34.2014,-17.53175 28.5446,-39.87876 -3.91542,-14.60512 -9.04358,-16.898505 -9.87716,-17.456051 -11.27496,16.510001 -19.22111,20.854061 -60.95394,28.630261 -20.733,3.38616 -63.8312,7.46399 -63.8312,7.46399 -41.3449,2.4554 -72.46228,3.30479 -79.203,21.11314 -6.9085,18.25161 10.39567,31.45159 10.39567,31.45159"
       style="display:inline;fill:#ff0000;fill-opacity:1;fill-rule:evenodd;stroke:#000000;stroke-width:0;stroke-linecap:butt;stroke-linejoin:miter;stroke-miterlimit:4;stroke-dasharray:none;stroke-opacity:1"
       inkscape:export-xdpi="143.45"
       inkscape:export-ydpi="143.45" /></g></svg>